<svg xmlns="http://www.w3.org/2000/svg" width="50mm" height="50mm" viewBox="0 0 50 50"><path d="M30.116 12.964 13.027 30.121s-7.213-2.238-10.684 2.68C-1.242 37.879.354 41.607.354 41.607l5.98-6.043 6.639 1.614 1.587 6.742-5.823 6.055s8.091.625 10.682-4.322c2.446-4.668.604-8.096.604-8.096l17.24-17.611s6.416 2.203 9.586-1.208c3.918-4.216 3.075-9.757 3.075-9.757l-6.297 5.496-6.295-1.53-2.025-6.478 6-5.912s-4.084-2.085-8.805 1.814c-4.72 3.898-2.386 10.593-2.386 10.593z" style="fill:#fff;fill-opacity:1;stroke:none;stroke-width:.288299px;stroke-linecap:butt;stroke-linejoin:miter;stroke-opacity:1"/></svg>