<svg xmlns="http://www.w3.org/2000/svg" width="50mm" height="50mm" viewBox="0 0 50 50"><path d="M89.764.117A94.488 94.488 0 0 0 63.576 5.2l26.188 64.938V.117zm9.449.002v92.649l59.625 70.908a94.488 94.488 0 0 0 30.139-69.188A94.488 94.488 0 0 0 99.213.12zm-44.4 8.615a94.488 94.488 0 0 0-35.596 28.639L84.27 81.789 54.812 8.734zM13.889 45.178A94.488 94.488 0 0 0 0 94.488a94.488 94.488 0 0 0 9.77 41.842l75.746-42.244-71.627-48.908zm79.492 55.334L14.37 144.58a94.488 94.488 0 0 0 80.117 44.397 94.488 94.488 0 0 0 57.117-19.217l-58.224-69.248z" style="fill:#fff;fill-opacity:1;stroke:none;stroke-width:9.82677" transform="scale(.26458)"/></svg>