<svg xmlns="http://www.w3.org/2000/svg" width="50mm" height="50mm" viewBox="0 0 50 50"><path d="M94.19 18.898a75.59 75.59 0 0 0-75.292 75.59 75.59 75.59 0 0 0 75.59 75.59 75.59 75.59 0 0 0 75.59-75.59 75.59 75.59 0 0 0-75.59-75.59 75.59 75.59 0 0 0-.299 0zm.298 37.795a37.795 37.795 0 0 1 37.795 37.795 37.795 37.795 0 0 1-37.795 37.795 37.795 37.795 0 0 1-37.795-37.795 37.795 37.795 0 0 1 37.795-37.795z" style="fill:#fff;fill-opacity:1;stroke:none;stroke-width:7.55906" transform="scale(.26458)"/><path d="M30.355-25h10v10h-10z" style="fill:#fff;fill-opacity:1;stroke:none;stroke-width:2" transform="rotate(45)"/><path d="M20 0h10v10H20z" style="fill:#fff;fill-opacity:1;stroke:none;stroke-width:2"/><path d="M-5 10.355H5v10H-5z" style="fill:#fff;fill-opacity:1;stroke:none;stroke-width:2" transform="rotate(-45)"/><path d="M-30 0h10v10h-10z" style="fill:#fff;fill-opacity:1;stroke:none;stroke-width:2" transform="rotate(-90)"/><path d="M-40.355-25h10v10h-10z" style="fill:#fff;fill-opacity:1;stroke:none;stroke-width:2" transform="rotate(-135)"/><path d="M-30-50h10v10h-10z" style="fill:#fff;fill-opacity:1;stroke:none;stroke-width:2" transform="scale(-1)"/><path d="M-5-60.355H5v10H-5z" style="fill:#fff;fill-opacity:1;stroke:none;stroke-width:2" transform="rotate(135)"/><path d="M20-50h10v10H20z" style="fill:#fff;fill-opacity:1;stroke:none;stroke-width:2" transform="rotate(90)"/></svg>