<svg xmlns="http://www.w3.org/2000/svg" width="50mm" height="50mm" viewBox="0 0 50 50"><defs><clipPath id="b" clipPathUnits="userSpaceOnUse"><rect width="50.014" height="53.029" x="131.138" y="131.566" rx="1.68" ry="1.68" style="color:#000;clip-rule:nonzero;display:inline;overflow:visible;visibility:visible;opacity:1;isolation:auto;mix-blend-mode:normal;color-interpolation:sRGB;color-interpolation-filters:linearRGB;solid-color:#000;solid-opacity:1;fill:none;fill-opacity:1;fill-rule:evenodd;stroke:#000;stroke-width:.264583px;stroke-linecap:butt;stroke-linejoin:miter;stroke-miterlimit:4;stroke-dasharray:none;stroke-dashoffset:0;stroke-opacity:1;color-rendering:auto;image-rendering:auto;shape-rendering:auto;text-rendering:auto;enable-background:accumulate"/></clipPath><filter id="a" width="1" height="1" x="0" y="0" style="color-interpolation-filters:sRGB"><feGaussianBlur stdDeviation=".002"/></filter></defs><path d="M140.01 180.704c-1.198-.752-1.66-2.34-1.05-3.616.564-1.184.582-1.125-.389-1.222-1.108-.111-1.703-.965-1.175-1.687.361-.494.886-.516 14.424-.603 15.135-.097 14.833-.067 14.833-1.458 0-.546-.913-1.534-4.387-4.749-1.076-.995-1.092-1-4.233-1.258-4.046-.331-20.215-1.573-20.485-1.573-.29 0-.383-.449-1.582-7.56-.587-3.482-1.12-6.57-1.186-6.862-.265-1.18-.033-1.23 7.433-1.592 3.91-.19 11.353-.557 16.538-.816l9.428-.471 1.27-3.29c1.42-3.68 1.1-3.379 5.006-4.705 2.631-.893 3.575-.768 3.575.471 0 .557-.801.994-3.307 1.803-1.019.329-1.96.697-2.09.817-.397.364-8.89 22.45-8.89 23.116 0 .2.387.686.86 1.079 2.405 1.996 3.905 3.653 4.158 4.592.348 1.292-.014 2.536-1.049 3.604l-.802.827.661.621c1.437 1.35.987 3.914-.819 4.669-2.844 1.188-5.288-1.94-3.49-4.466l.579-.812-6.2.176c-3.411.096-7.971.175-10.134.175l-3.933.001.427.652c.235.359.427 1.13.427 1.716 0 2.246-2.506 3.62-4.417 2.421zm2.507-1.232c1.18-.826.526-2.763-.931-2.763-1.34 0-2.099 1.385-1.317 2.404.619.806 1.426.935 2.248.359zm-1.617-.558c-.4-.4-.158-1.381.383-1.553a.919.919 0 0 1 1.17 1.17c-.172.542-1.152.783-1.553.383zm25.854.098c.507-.683.519-.795.15-1.455-.445-.798-1.482-1.057-2.354-.59-.778.416-.746 1.95.053 2.513.805.568 1.491.418 2.15-.468zm-2.029-.086c-.651-.652.222-1.846 1.137-1.555.844.268.629 1.56-.277 1.665-.37.043-.756-.007-.86-.11zm-2.55-15.976c.408-1.091.75-2.138.759-2.327.011-.255-.434-.323-1.743-.264l-1.758.078-.617 2.117c-.34 1.164-.62 2.137-.623 2.163-.021.156 1.088.295 2.079.26l1.158-.042zm-4.785.067c.3-.983.611-1.995.69-2.25.127-.414-.08-.462-1.962-.462h-2.105l-.356 1.786c-.48 2.407-.517 2.294.825 2.473 2.462.328 2.308.41 2.908-1.547zm-5.087-.445c.508-2.674.6-2.532-1.64-2.532-1.644 0-1.988.076-2.102.463-.215.729-.278 3.108-.09 3.412.094.15.92.299 1.837.328l1.668.054zm-5.226.445c.002-.546.077-1.44.167-1.985l.164-.992h-4.303l.004 1.257c.006 2.05.186 2.405 1.28 2.52 2.693.286 2.685.288 2.688-.8zm-5.034-.794c-.007-2.396-.055-2.448-2.31-2.448h-1.988l.182 1.37c.29 2.191.439 2.335 2.41 2.335h1.71zm22.252-4.88c1.28-3.124 1.375-2.86-1.027-2.86h-2.097l-.596 2.094c-.328 1.151-.523 2.213-.432 2.36.09.146.898.245 1.795.221l1.631-.044zm-11.1.585c.103-.507.264-1.43.357-2.05l.17-1.13h-4.796v.757c0 .416-.075 1.303-.166 1.97l-.166 1.212 1.423.104c2.801.205 2.971.159 3.179-.863zm5.987-1.012c.326-1.137.592-2.149.592-2.25 0-.245-4.02-.227-4.401.02-.327.212-1.17 3.928-.943 4.155.077.078 1.045.14 2.15.14h2.01zm-17.4-.035c0-1.01-.103-1.9-.23-1.98-.126-.077-1.209-.066-2.405.026l-2.175.168.171 1.216c.302 2.14.272 2.108 2.074 2.21a66.84 66.84 0 0 1 2.102.145c.402.044.463-.193.463-1.785zm5.654 1.24c.088-.327.162-1.22.164-1.984l.004-1.389h-4.832l.164.993c.09.545.165 1.438.167 1.984l.003.992h2.086c1.939 0 2.097-.042 2.245-.595zm-5.918-6.283c0-1.296-.1-1.858-.33-1.87-.93-.05-4.834.066-4.915.147-.051.052-.01.877.093 1.834l.186 1.741h4.966zm6.445.595c.09-.545.165-1.455.166-2.021l.003-1.029-1.389.167c-.764.092-1.954.168-2.645.169l-1.257.002v3.704h4.958zm6.416-.727c.586-2.787.739-2.618-2.185-2.426-1.404.092-2.592.206-2.64.254-.047.047-.166.947-.263 2l-.178 1.912 2.466-.076 2.466-.077zm5.583 1.508c.306-.195 1.389-3.263 1.396-3.956.004-.377-4.383-.477-4.957-.113-.182.116-.456.918-.61 1.782-.154.865-.34 1.78-.415 2.035-.121.415.093.463 2.065.46 1.21-.003 2.345-.096 2.521-.208zm6.162-.414c0-.198.35-1.208.777-2.244.427-1.035.695-1.92.595-1.966-.1-.046-1.178-.018-2.395.06l-2.214.145-.47 1.52a59.715 59.715 0 0 0-.635 2.184l-.166.662h2.254c1.726 0 2.254-.085 2.254-.36z" clip-path="url(#b)" style="fill:#fff;fill-opacity:1;stroke-width:.287711;filter:url(#a)" transform="matrix(1.15414 0 0 1.15413 -155.477 -159.551)"/></svg>