<?xml version="1.0" encoding="UTF-8" standalone="no"?>
<svg
   id="svg8"
   version="1.1"
   viewBox="0 0 50 50"
   height="50mm"
   width="50mm"
   xmlns="http://www.w3.org/2000/svg"
   xmlns:svg="http://www.w3.org/2000/svg"
   xmlns:rdf="http://www.w3.org/1999/02/22-rdf-syntax-ns#"
   xmlns:cc="http://creativecommons.org/ns#"
   xmlns:dc="http://purl.org/dc/elements/1.1/">
  <defs
     id="defs2" />
  <metadata
     id="metadata5">
    <rdf:RDF>
      <cc:Work
         rdf:about="">
        <dc:format>image/svg+xml</dc:format>
        <dc:type
           rdf:resource="http://purl.org/dc/dcmitype/StillImage" />
        <dc:title />
      </cc:Work>
    </rdf:RDF>
  </metadata>
  <g
     id="layer1">
    <path
       transform="scale(0.26458333)"
       d="M 89.763672 0.1171875 A 94.488186 94.488186 0 0 0 63.576172 5.1992188 L 89.763672 70.136719 L 89.763672 0.1171875 z M 99.212891 0.11914062 L 99.212891 92.767578 L 158.83789 163.67578 A 94.488186 94.488186 0 0 0 188.97656 94.488281 A 94.488186 94.488186 0 0 0 99.212891 0.11914062 z M 54.8125 8.734375 A 94.488186 94.488186 0 0 0 19.216797 37.373047 L 84.271484 81.789062 L 54.8125 8.734375 z M 13.888672 45.177734 A 94.488186 94.488186 0 0 0 0 94.488281 A 94.488186 94.488186 0 0 0 9.7695312 136.33008 L 85.515625 94.085938 L 13.888672 45.177734 z M 93.380859 100.51172 L 14.371094 144.58008 A 94.488186 94.488186 0 0 0 94.488281 188.97656 A 94.488186 94.488186 0 0 0 151.60547 169.75977 L 93.380859 100.51172 z "
       style="fill:#ffffff;fill-opacity:1;stroke:none;stroke-width:9.82677"
       id="path883" />
  </g>
</svg>
