<?xml version="1.0" encoding="UTF-8" standalone="no"?>
<svg
   xmlns:dc="http://purl.org/dc/elements/1.1/"
   xmlns:cc="http://creativecommons.org/ns#"
   xmlns:rdf="http://www.w3.org/1999/02/22-rdf-syntax-ns#"
   xmlns:svg="http://www.w3.org/2000/svg"
   xmlns="http://www.w3.org/2000/svg"
   xmlns:sodipodi="http://sodipodi.sourceforge.net/DTD/sodipodi-0.dtd"
   xmlns:inkscape="http://www.inkscape.org/namespaces/inkscape"
   id="svg8"
   version="1.1"
   viewBox="0 0 50 50"
   height="50mm"
   width="50mm"
   sodipodi:docname="settings.svg"
   inkscape:version="1.0 (4035a4fb49, 2020-05-01)">
  <sodipodi:namedview
     inkscape:document-rotation="0"
     pagecolor="#000000"
     bordercolor="#666666"
     borderopacity="1"
     objecttolerance="10"
     gridtolerance="10"
     guidetolerance="10"
     inkscape:pageopacity="1"
     inkscape:pageshadow="2"
     inkscape:window-width="1920"
     inkscape:window-height="1015"
     id="namedview8"
     showgrid="false"
     inkscape:zoom="3.7835417"
     inkscape:cx="94.488189"
     inkscape:cy="94.488189"
     inkscape:window-x="0"
     inkscape:window-y="0"
     inkscape:window-maximized="1"
     inkscape:current-layer="layer1" />
  <defs
     id="defs2" />
  <metadata
     id="metadata5">
    <rdf:RDF>
      <cc:Work
         rdf:about="">
        <dc:format>image/svg+xml</dc:format>
        <dc:type
           rdf:resource="http://purl.org/dc/dcmitype/StillImage" />
        <dc:title />
      </cc:Work>
    </rdf:RDF>
  </metadata>
  <g
     id="layer1">
    <path
       transform="scale(0.26458333)"
       d="M 94.189453 18.898438 A 75.590552 75.590552 0 0 0 18.898438 94.488281 A 75.590552 75.590552 0 0 0 94.488281 170.07812 A 75.590552 75.590552 0 0 0 170.07812 94.488281 A 75.590552 75.590552 0 0 0 94.488281 18.898438 A 75.590552 75.590552 0 0 0 94.189453 18.898438 z M 94.488281 56.693359 A 37.795276 37.795276 0 0 1 132.2832 94.488281 A 37.795276 37.795276 0 0 1 94.488281 132.2832 A 37.795276 37.795276 0 0 1 56.693359 94.488281 A 37.795276 37.795276 0 0 1 94.488281 56.693359 z "
       style="fill:#ffffff;fill-opacity:1;stroke:none;stroke-width:7.55906"
       id="path833" />
    <rect
       transform="rotate(45.000018)"
       y="-25.000011"
       x="30.355339"
       height="10"
       width="10"
       id="rect1092"
       style="fill:#ffffff;fill-opacity:1;stroke:none;stroke-width:2" />
    <rect
       style="fill:#ffffff;fill-opacity:1;stroke:none;stroke-width:2"
       id="rect1092-5"
       width="10"
       height="10"
       x="20"
       y="5.5511151e-16" />
    <rect
       transform="rotate(-44.999991)"
       style="fill:#ffffff;fill-opacity:1;stroke:none;stroke-width:2"
       id="rect1092-0"
       width="10"
       height="10"
       x="-4.9999943"
       y="10.35534" />
    <rect
       transform="rotate(-90)"
       style="fill:#ffffff;fill-opacity:1;stroke:none;stroke-width:2"
       id="rect1092-3"
       width="10"
       height="10"
       x="-29.999998"
       y="0" />
    <rect
       transform="rotate(-135)"
       style="fill:#ffffff;fill-opacity:1;stroke:none;stroke-width:2"
       id="rect1092-6"
       width="10"
       height="10"
       x="-40.355339"
       y="-25" />
    <rect
       transform="scale(-1)"
       style="fill:#ffffff;fill-opacity:1;stroke:none;stroke-width:2"
       id="rect1092-1"
       width="10"
       height="10"
       x="-30"
       y="-50" />
    <rect
       transform="rotate(135)"
       style="fill:#ffffff;fill-opacity:1;stroke:none;stroke-width:2"
       id="rect1092-06"
       width="10"
       height="10"
       x="-5.0000005"
       y="-60.355339" />
    <rect
       transform="rotate(90)"
       y="-50"
       x="20"
       height="10"
       width="10"
       id="rect1092-06-3"
       style="fill:#ffffff;fill-opacity:1;stroke:none;stroke-width:2" />
  </g>
</svg>
