<?xml version="1.0" encoding="UTF-8" standalone="no"?>
<svg
   width="50mm"
   height="50mm"
   viewBox="0 0 50 50"
   version="1.1"
   id="svg8"
   xmlns="http://www.w3.org/2000/svg"
   xmlns:svg="http://www.w3.org/2000/svg"
   xmlns:rdf="http://www.w3.org/1999/02/22-rdf-syntax-ns#"
   xmlns:cc="http://creativecommons.org/ns#"
   xmlns:dc="http://purl.org/dc/elements/1.1/">
  <defs
     id="defs2">
    <clipPath
       clipPathUnits="userSpaceOnUse"
       id="clipPath853">
      <rect
         style="color:#000000;clip-rule:nonzero;display:inline;overflow:visible;visibility:visible;opacity:1;isolation:auto;mix-blend-mode:normal;color-interpolation:sRGB;color-interpolation-filters:linearRGB;solid-color:#000000;solid-opacity:1;fill:none;fill-opacity:1;fill-rule:evenodd;stroke:#000000;stroke-width:0.264583px;stroke-linecap:butt;stroke-linejoin:miter;stroke-miterlimit:4;stroke-dasharray:none;stroke-dashoffset:0;stroke-opacity:1;color-rendering:auto;image-rendering:auto;shape-rendering:auto;text-rendering:auto;enable-background:accumulate"
         id="rect855"
         width="50.013512"
         height="53.029099"
         x="131.13766"
         y="131.56596"
         rx="1.679575"
         ry="1.679575" />
    </clipPath>
    <filter
       style="color-interpolation-filters:sRGB"
       id="filter889"
       x="-0.0001270017"
       width="1.000254"
       y="-0.00012947908"
       height="1.000259">
      <feGaussianBlur
         stdDeviation="0.0022920575"
         id="feGaussianBlur891" />
    </filter>
  </defs>
  <metadata
     id="metadata5">
    <rdf:RDF>
      <cc:Work
         rdf:about="">
        <dc:format>image/svg+xml</dc:format>
        <dc:type
           rdf:resource="http://purl.org/dc/dcmitype/StillImage" />
        <dc:title />
      </cc:Work>
    </rdf:RDF>
  </metadata>
  <g
     id="layer1">
    <path
       style="fill:#ffffff;fill-opacity:1;stroke-width:0.287711;filter:url(#filter889)"
       d="m 140.01088,180.70413 c -1.19868,-0.75199 -1.66016,-2.33963 -1.05123,-3.61658 0.56419,-1.18311 0.58271,-1.12484 -0.38836,-1.22185 -1.10864,-0.11076 -1.7034,-0.96444 -1.17526,-1.68693 0.36111,-0.49399 0.88616,-0.51592 14.42399,-0.60258 15.13525,-0.0969 14.83322,-0.0672 14.83322,-1.45797 0,-0.54601 -0.91301,-1.53436 -4.38718,-4.74918 -1.07569,-0.99539 -1.09218,-1.00029 -4.23334,-1.25769 -4.04525,-0.33149 -20.21434,-1.57335 -20.48512,-1.57335 -0.28887,0 -0.38271,-0.4486 -1.58128,-7.56002 -0.58684,-3.48184 -1.12068,-6.56972 -1.18631,-6.86197 -0.26492,-1.17961 -0.0327,-1.22934 7.43286,-1.59161 3.91059,-0.18977 11.35286,-0.5571 16.53837,-0.81629 l 9.42821,-0.47127 1.26903,-3.28913 c 1.41974,-3.67976 1.10016,-3.37942 5.00702,-4.70553 2.63046,-0.89286 3.57483,-0.76841 3.57483,0.47111 0,0.5568 -0.80156,0.9937 -3.3073,1.80267 -1.01864,0.32887 -1.95957,0.69665 -2.09095,0.8173 -0.39654,0.36414 -8.88925,22.44905 -8.88925,23.11609 0,0.20049 0.38695,0.68575 0.85989,1.07835 2.4051,1.99656 3.9057,3.65379 4.15847,4.5925 0.34786,1.29185 -0.0143,2.53612 -1.04896,3.60358 l -0.80194,0.82739 0.66118,0.62115 c 1.4365,1.34953 0.98651,3.91403 -0.81919,4.66849 -2.84456,1.18854 -5.28855,-1.93901 -3.48953,-4.46551 l 0.57826,-0.81209 -6.20066,0.17533 c -3.41036,0.0964 -7.97051,0.17559 -10.13368,0.17593 l -3.93304,6.1e-4 0.42731,0.65215 c 0.23501,0.35868 0.4273,1.13071 0.4273,1.71562 0,2.2464 -2.50629,3.62018 -4.41736,2.42128 z m 2.50641,-1.23218 c 1.17899,-0.8258 0.52596,-2.76312 -0.93138,-2.76312 -1.34071,0 -2.09884,1.38471 -1.31644,2.40447 0.61825,0.80581 1.42551,0.93462 2.24782,0.35865 z m -1.61683,-0.55826 c -0.40037,-0.40037 -0.15895,-1.38099 0.38228,-1.55277 0.74426,-0.23622 1.40671,0.42623 1.17049,1.17049 -0.17178,0.54123 -1.15239,0.78265 -1.55277,0.38228 z m 25.8531,0.0981 c 0.50764,-0.68242 0.5193,-0.79516 0.15049,-1.45521 -0.44547,-0.79722 -1.48203,-1.05706 -2.35439,-0.59019 -0.77783,0.41628 -0.74545,1.9504 0.0531,2.51339 0.80522,0.56773 1.49144,0.41842 2.15083,-0.46799 z m -2.02845,-0.086 c -0.65158,-0.65159 0.22147,-1.8453 1.13707,-1.5547 0.8437,0.26778 0.6287,1.5593 -0.27717,1.66494 -0.36925,0.0431 -0.7562,-0.007 -0.8599,-0.11024 z m -2.55083,-15.97534 c 0.40913,-1.09141 0.75083,-2.13865 0.75933,-2.3272 0.0115,-0.2553 -0.43337,-0.32284 -1.74273,-0.26458 l -1.7582,0.0782 -0.61676,2.11667 c -0.33922,1.16417 -0.61959,2.1377 -0.62305,2.16341 -0.021,0.15627 1.0885,0.29467 2.07864,0.25927 l 1.1589,-0.0414 z m -4.78458,0.0661 c 0.30101,-0.98226 0.61148,-1.9943 0.68992,-2.24896 0.12755,-0.41411 -0.0797,-0.46302 -1.96192,-0.46302 h -2.10454 l -0.35577,1.78594 c -0.47967,2.40787 -0.51735,2.29488 0.82502,2.4738 2.46192,0.32815 2.30717,0.41054 2.90729,-1.54776 z m -5.08656,-0.44411 c 0.50738,-2.67469 0.59945,-2.53245 -1.63936,-2.53245 -1.64451,0 -1.9889,0.0758 -2.10306,0.46302 -0.21482,0.72865 -0.27733,3.10786 -0.0896,3.41157 0.0934,0.15107 0.92016,0.29897 1.83731,0.32866 l 1.66755,0.054 z m -5.22615,0.44411 c 0.002,-0.5457 0.0767,-1.43867 0.16691,-1.98437 l 0.164,-0.9921 h -2.15129 -2.15128 l 0.004,1.25677 c 0.006,2.05031 0.18603,2.40501 1.28026,2.52085 2.6927,0.28507 2.68459,0.28749 2.68779,-0.80106 z m -5.03361,-0.79375 c -0.007,-2.39619 -0.0552,-2.44739 -2.31029,-2.44739 h -1.9876 l 0.18156,1.36868 c 0.29077,2.19192 0.43888,2.33548 2.40946,2.33548 h 1.71048 z m 22.25164,-4.88021 c 1.27983,-3.12346 1.37487,-2.85885 -1.02677,-2.85885 h -2.09773 l -0.59602,2.09324 c -0.32782,1.15128 -0.52204,2.21296 -0.4316,2.35929 0.0904,0.14633 0.89835,0.24617 1.79537,0.22186 l 1.63094,-0.0442 z m -11.09949,0.58502 c 0.10286,-0.50696 0.26318,-1.42969 0.35628,-2.05052 l 0.16927,-1.12877 h -2.39746 -2.39746 v 0.75682 c 0,0.41626 -0.0748,1.30247 -0.1662,1.96938 l -0.1662,1.21255 1.42297,0.10411 c 2.80152,0.20499 2.97136,0.15885 3.1788,-0.86357 z m 5.98626,-1.01208 c 0.32576,-1.13637 0.59229,-2.1484 0.59229,-2.24896 0,-0.24516 -4.02005,-0.2272 -4.40105,0.0197 -0.32746,0.21217 -1.17036,3.92749 -0.94269,4.15516 0.0771,0.0771 1.04452,0.14027 2.14971,0.14027 h 2.00945 z m -17.39938,-0.0349 c 0,-1.01005 -0.10359,-1.90049 -0.23021,-1.97874 -0.12661,-0.0782 -1.20892,-0.0668 -2.40513,0.0254 l -2.17493,0.16772 0.17125,1.21571 c 0.30137,2.1395 0.27183,2.108 2.07327,2.21081 0.90184,0.0515 1.84807,0.11651 2.10273,0.14455 0.40139,0.0442 0.46302,-0.19344 0.46302,-1.78549 z m 5.65407,1.24116 c 0.0877,-0.32742 0.16116,-1.22039 0.16315,-1.98437 l 0.004,-1.38907 h -2.41587 -2.41587 l 0.164,0.99219 c 0.0902,0.5457 0.16531,1.43867 0.16691,1.98438 l 0.003,0.99218 h 2.0858 c 1.9394,0 2.09701,-0.0418 2.24535,-0.59531 z m -5.91865,-6.28385 c 0,-1.29565 -0.0994,-1.85751 -0.33073,-1.87015 -0.92853,-0.0507 -4.83289,0.0664 -4.91389,0.1474 -0.0515,0.0515 -0.01,0.8769 0.0928,1.83423 l 0.18641,1.7406 h 2.48272 2.48271 z m 6.44476,0.59531 c 0.0902,-0.5457 0.16531,-1.45526 0.16691,-2.02123 l 0.003,-1.02904 -1.38907,0.16684 c -0.76398,0.0918 -1.95461,0.16788 -2.64583,0.16915 l -1.25677,0.002 v 1.85208 1.85209 h 2.47893 2.47892 z m 6.41638,-0.72761 c 0.5864,-2.78675 0.73869,-2.6177 -2.18513,-2.42564 -1.40423,0.0922 -2.59191,0.20647 -2.63928,0.25384 -0.0474,0.0474 -0.16614,0.94706 -0.26394,1.9993 l -0.17781,1.91318 2.46605,-0.0766 2.46606,-0.0766 z m 5.58316,1.50811 c 0.30583,-0.19436 1.38889,-3.26306 1.39603,-3.9555 0.004,-0.3772 -4.38352,-0.4771 -4.95712,-0.11288 -0.18168,0.11537 -0.45621,0.91722 -0.61006,1.78189 -0.15386,0.86467 -0.34066,1.78049 -0.41511,2.03516 -0.12131,0.41492 0.0932,0.4626 2.06527,0.45896 1.21036,-0.002 2.3448,-0.0957 2.52099,-0.20763 z m 6.16195,-0.41338 c 0,-0.19827 0.34949,-1.20803 0.77666,-2.24391 0.42716,-1.03588 0.69505,-1.92086 0.59531,-1.96662 -0.0997,-0.0458 -1.17758,-0.0183 -2.3952,0.0611 l -2.21385,0.1443 -0.46923,1.52048 c -0.25807,0.83627 -0.54403,1.81854 -0.63546,2.18282 l -0.16623,0.66232 h 2.254 c 1.72604,0 2.254,-0.0844 2.254,-0.36048 z"
       id="path849"
       clip-path="url(#clipPath853)"
       transform="matrix(1.1541419,0,0,1.1541292,-155.47708,-159.55108)" />
  </g>
</svg>
